<svg width="256" height="256" viewBox="0 0 256 256" fill="none" xmlns="http://www.w3.org/2000/svg">
<rect width="256" height="256" fill="white"/>
<path d="M84.8522 101.517H114.981L128.007 125.359V37.0693C128.007 37.0693 105.925 53.8379 52.0757 74.5971C52.0757 74.5971 43.2492 167.725 128.007 218.931V166.074L84.8522 101.517Z" fill="#083447"/>
<path d="M203.924 74.597C200.458 73.2597 197.129 71.9345 193.917 70.6365L128.008 166.074V218.928C212.756 167.725 203.924 74.597 203.924 74.597Z" fill="#27A9E1"/>
<path d="M173.573 61.8978C141.687 47.4204 128.007 37.0694 128.007 37.0694V125.359L182.605 66.0153C179.529 64.6539 176.514 63.2653 173.573 61.8737V61.8978Z" fill="#27A9E1"/>
</svg>
